<svg viewBox="0 0 32 32" fill="none" xmlns="http://www.w3.org/2000/svg"><path fill-rule="evenodd" clip-rule="evenodd" d="M25.52 2H2V25.5A4.48 4.48 0 0 0 6.48 30h19.04A4.48 4.48 0 0 0 30 25.51V6.47A4.48 4.48 0 0 0 25.52 2ZM9.08 20.16v4.7c0 1.9 1.12 2.88 2.88 2.88 1.82.03 3.11-1.17 3-3.22h-2.07c.05.73-.2 1.38-.84 1.38-.62-.03-.9-.45-.9-1.32V20.5c0-.9.2-1.37.9-1.37.56-.03.9.53.84 1.29h2.07c.06-1.99-1.06-3.17-2.86-3.14-1.82 0-3.02 1.01-3.02 2.89Zm6.64 4.36h1.93c.03.9.3 1.46.92 1.46.62 0 .84-.36.84-1.2 0-.7-.3-1.1-1.06-1.46l-.73-.34c-1.29-.61-1.82-1.37-1.82-2.88 0-1.68 1.06-2.86 2.8-2.86 1.74 0 2.66 1.2 2.69 3.17H19.4c0-.81-.17-1.37-.78-1.37-.56 0-.84.28-.84.98s.25.98.92 1.26l.67.3c1.43.68 2.05 1.54 2.05 3.17 0 1.93-1.1 3-2.89 3s-2.8-1.24-2.82-3.23Zm8.28 0h-1.96c.03 2 1.04 3.22 2.83 3.22 1.8 0 2.89-1.06 2.89-3 0-1.62-.62-2.48-2.02-3.16l-.7-.3c-.67-.28-.9-.56-.9-1.26s.26-.98.82-.98c.61 0 .78.56.8 1.37h1.88c-.05-1.96-.92-3.17-2.68-3.17-1.77 0-2.8 1.18-2.8 2.86 0 1.51.5 2.27 1.79 2.88l.73.34c.78.36 1.06.76 1.06 1.46 0 .84-.25 1.2-.84 1.2s-.9-.56-.9-1.46Z" fill="#639"/></svg>