<svg viewBox="0 0 32 32" fill="none" xmlns="http://www.w3.org/2000/svg"><path fill-rule="evenodd" clip-rule="evenodd" d="M3.65 2 5.9 27.2 15.98 30l10.11-2.8L28.34 2H3.65ZM16 21.44l3.45-.93.35-4.01H9.1l-.84-9.35h15.48l-.28 3.1H11.63l.28 3.16h11.26l-.07.83-.73 8.13-.04.53L16 24.65h-.01L9.65 22.9l-.43-4.86h3.1l.22 2.47 3.45.93Z" fill="#E44F26"/><path fill-rule="evenodd" clip-rule="evenodd" d="M24.17 25.6 16 27.85v-3.21l6.33-1.75.04-.53.73-8.13.07-.83H16v-3.17h7.45l.28-3.09H16V4.06h10.1L24.16 25.6ZM16 21.42l3.44-.92.35-4.01H16v4.93Z" fill="#F1662A"/></svg>