<svg viewBox="0 0 32 32" fill="none" xmlns="http://www.w3.org/2000/svg"><path fill-rule="evenodd" clip-rule="evenodd" d="M12.1 6.75 2.84 5.09a.71.71 0 0 0-.74 1.06l13.4 23.5c.27.48.97.48 1.24 0l13.14-23.5a.71.71 0 0 0-.75-1.06l-7.62 1.4-.65 2.27c-.08.26.15.5.4.45l2.8-.54c.29-.05.51.25.38.51L16.52 25l-.15.22c-.21.33-.73.12-.65-.26l1.28-6.2a.36.36 0 0 0-.45-.4l-1.67.5a.36.36 0 0 1-.46-.41l.8-3.94a.36.36 0 0 0-.42-.42l-2.71.62a.36.36 0 0 1-.44-.36l.45-7.6Z" fill="url(#a)"/><defs><linearGradient id="a" x1="1.77" y1="4.25" x2="18.12" y2="26.46" gradientUnits="userSpaceOnUse"><stop stop-color="#41D1FF"/><stop offset="1" stop-color="#BD34FE"/></linearGradient></defs></svg>