<svg width="64" height="64" fill="none" xmlns="http://www.w3.org/2000/svg"><g clip-path="url(#a)" fill="#5757E0"><path d="M15.92 64H7.08a7.04 7.04 0 0 1-5-2.1A7.2 7.2 0 0 1 0 56.84V37.16c0-1.9.75-3.72 2.07-5.06a7.04 7.04 0 0 1 5-2.1h8.85c1.88 0 3.68.75 5 2.1A7.2 7.2 0 0 1 23 37.16v19.68a7.2 7.2 0 0 1-2.07 5.06 7.04 7.04 0 0 1-5 2.1ZM7.08 33.58c-.94 0-1.84.38-2.5 1.05a3.6 3.6 0 0 0-1.04 2.53v19.68c0 .95.37 1.86 1.03 2.53a3.52 3.52 0 0 0 2.5 1.05h8.85c.94 0 1.84-.38 2.5-1.05a3.6 3.6 0 0 0 1.04-2.53V37.16a3.6 3.6 0 0 0-1.03-2.53 3.52 3.52 0 0 0-2.5-1.05H7.07Z"/><path d="M10.4 57.64a2 2 0 0 0 2.51-3.08 2.06 2.06 0 0 0-2.83 0 2 2 0 0 0 .31 3.08Z"/><path fill-rule="evenodd" clip-rule="evenodd" d="M40 64a8 8 0 0 1-8-8V30a8 8 0 0 1 8-8h16a8 8 0 0 1 8 8v26a8 8 0 0 1-8 8H40Zm18.83-36.83A4 4 0 0 1 60 30v26a4 4 0 0 1-4 4H40a4 4 0 0 1-4-4V30a4 4 0 0 1 4-4h16a4 4 0 0 1 2.83 1.17Z"/><path d="M56 24V8a4 4 0 0 0-4-4H12a4 4 0 0 0-4 4v24H4V8a8 8 0 0 1 8-8h40a8 8 0 0 1 8 8v16h-4ZM22 39h11v12h-9c-1 0-2-.5-2-2s1-2 2-2h6v-4h-8v-4Z"/></g><defs><clipPath id="a"><path fill="#fff" d="M0 0h64v64H0z"/></clipPath></defs></svg>