<svg width="48" height="48" fill="none" xmlns="http://www.w3.org/2000/svg"><path fill-rule="evenodd" clip-rule="evenodd" d="M6.34 6.34C4 8.69 4 12.46 4 20v8.095C4 35.572 4 39.33 6.34 41.66 8.69 44 12.46 44 20 44h8.095c7.477 0 11.235 0 13.565-2.34C44 39.31 44 35.54 44 28v-8.095c0-7.477 0-11.235-2.34-13.565C39.31 4 35.54 4 28 4h-8.095C12.428 4 8.67 4 6.34 6.34Zm10.16 7.91h15a2.25 2.25 0 0 1 2.25 2.25v2.75h-19.5V16.5a2.25 2.25 0 0 1 2.25-2.25Zm1 3.5h1a.75.75 0 1 0 0-1.5h-1a.75.75 0 1 0 0 1.5Zm3 0h1a.75.75 0 1 0 0-1.5h-1a.75.75 0 1 0 0 1.5Zm-5.591 15.341a2.25 2.25 0 0 1-.659-1.591V20.75h19.5V31.5a2.25 2.25 0 0 1-2.25 2.25h-15a2.25 2.25 0 0 1-1.591-.659Zm9.827-9.148a.766.766 0 0 0 .184.557L27 27l-2.08 2.52a.76.76 0 0 0 .1 1.06.76.76 0 0 0 1.06-.1L28 28.17l1.94 2.31a.758.758 0 0 0 1.06.1.76.76 0 0 0 .1-1.06L29 27l2.08-2.48a.765.765 0 1 0-1.16-1L28 25.83l-1.92-2.33a.766.766 0 0 0-1.344.443Zm-7.766-.473a.75.75 0 0 0-.22.53v3.51a3.25 3.25 0 1 0 6.5 0V24a.75.75 0 1 0-1.5 0v3.51a1.75 1.75 0 0 1-3.5 0V24a.75.75 0 0 0-1.28-.53Z" fill="#5757E0"/></svg>