<svg viewBox="0 0 80 28" fill="none" xmlns="http://www.w3.org/2000/svg"><g clip-path="url(#a)"><path d="M6.34 6.37c.28.53.61 1.18.98 1.97.38.76.78 1.6 1.18 2.52.41.9.82 1.81 1.22 2.76l1.13 2.66 1.13-2.66a157.74 157.74 0 0 1 2.37-5.28c.39-.79.72-1.44 1.01-1.97h3.4a104.55 104.55 0 0 1 .8 8c.11 1.46.2 2.94.29 4.43.1 1.49.17 2.89.24 4.2h-3.65a431.8 431.8 0 0 0-.2-5.28c-.07-1.9-.2-3.82-.35-5.76l-.96 2.23-1.06 2.45a217.89 217.89 0 0 1-1.8 4.25H9.46l-.82-1.9-1-2.35a159.57 159.57 0 0 0-2-4.68c-.16 1.94-.28 3.86-.36 5.76L5.08 23H1.45l.22-4.2.28-4.44.36-4.27c.15-1.38.3-2.62.46-3.72h3.58Zm21.7 14.13a20.21 20.21 0 0 0 1.78-.1v-2.7a6.6 6.6 0 0 0-1.44-.15c-.34 0-.66.03-.96.07-.29.04-.54.1-.77.22-.22.11-.4.26-.53.46-.12.19-.19.43-.19.72 0 .56.19.95.55 1.17.39.21.9.31 1.56.31Zm-.28-10.46c1.05 0 1.93.12 2.64.36a4 4 0 0 1 1.68 1.03c.43.45.73 1 .9 1.63.18.64.27 1.36.27 2.14v7.44c-.51.11-1.22.24-2.13.38-.92.16-2.02.24-3.32.24-.81 0-1.56-.07-2.23-.21a4.96 4.96 0 0 1-1.7-.7 3.33 3.33 0 0 1-1.1-1.3 4.43 4.43 0 0 1-.4-1.94c0-.73.15-1.36.44-1.87.3-.51.7-.92 1.2-1.22.5-.3 1.07-.52 1.7-.65a9.05 9.05 0 0 1 3.22-.15c.37.04.67.08.89.15v-.34c0-.6-.18-1.1-.55-1.46-.37-.37-1.01-.55-1.92-.55a11.23 11.23 0 0 0-3.34.5l-.45-2.88.76-.2c.32-.07.67-.14 1.04-.18.36-.07.75-.12 1.15-.15.41-.05.83-.07 1.25-.07Zm13.74 4.18 2.5-3.84h3.7l-4.33 6.07c.96 1.2 1.83 2.37 2.62 3.5.78 1.14 1.4 2.15 1.87 3.05h-3.84a110.58 110.58 0 0 0-1.13-2.02c-.24-.4-.5-.79-.77-1.17-.25-.4-.5-.76-.76-1.08-.24.3-.5.64-.75 1l-.7 1.13-.67 1.1L38.7 23h-3.65c.2-.4.46-.87.8-1.42a57.6 57.6 0 0 1 2.32-3.43c.44-.59.86-1.14 1.28-1.65a502.85 502.85 0 0 1-4.3-6.12H39l2.5 3.84Z" fill="#BF6E26"/><path d="M55 6.18c2.49 0 4.39.44 5.72 1.32 1.33.86 1.99 2.28 1.99 4.27 0 2-.67 3.45-2.02 4.34-1.34.88-3.26 1.32-5.76 1.32h-1.17V23H50V6.6c.82-.15 1.68-.26 2.6-.33.9-.06 1.7-.1 2.4-.1Zm.25 3.19a13.9 13.9 0 0 0-1.5.07v4.8h1.18c1.3 0 2.28-.18 2.93-.53.66-.35.99-1 .99-1.97 0-.46-.1-.84-.27-1.15-.16-.3-.4-.54-.72-.72-.3-.19-.68-.32-1.13-.38a8.5 8.5 0 0 0-1.48-.12ZM74.95 23c-.17-.58-.37-1.17-.6-1.78l-.62-1.82h-6.48a56.49 56.49 0 0 0-1.22 3.6h-3.9a296 296 0 0 1 3.42-9.26 91.29 91.29 0 0 1 3.22-7.37h3.57a123.68 123.68 0 0 1 3.19 7.37c.54 1.34 1.1 2.77 1.66 4.3A296 296 0 0 1 78.96 23h-4Zm-4.48-12.86-.36.98a792.44 792.44 0 0 0-2 5.3h4.73l-.74-2.06a792.44 792.44 0 0 0-1.63-4.22Z" fill="#5B5B5B"/></g><defs><clipPath id="a"><path fill="#fff" d="M0 0h80v28H0z"/></clipPath></defs></svg>