<svg width="52" height="52" fill="none" xmlns="http://www.w3.org/2000/svg"><g clip-path="url(#a)"><path fill-rule="evenodd" clip-rule="evenodd" d="M25.52 10.3c-6.8 0-11.06 3.38-12.76 10.14 2.55-3.38 5.53-4.65 8.93-3.8 1.94.48 3.33 1.88 4.86 3.43 2.5 2.52 5.4 5.44 11.72 5.44 6.8 0 11.06-3.38 12.76-10.14-2.55 3.38-5.52 4.65-8.93 3.8-1.94-.48-3.33-1.88-4.86-3.43-2.5-2.53-5.4-5.45-11.72-5.45ZM12.76 25.5C5.96 25.51 1.7 28.9 0 35.66c2.55-3.38 5.53-4.65 8.93-3.8 1.94.48 3.33 1.88 4.87 3.43 2.5 2.52 5.4 5.44 11.72 5.44 6.8 0 11.05-3.38 12.75-10.14-2.55 3.38-5.52 4.65-8.93 3.8-1.94-.48-3.32-1.88-4.86-3.43-2.5-2.53-5.4-5.45-11.72-5.45Z" fill="#5757E0"/></g><defs><clipPath id="a"><path fill="#fff" d="M0 0h51.03v51.03H0z"/></clipPath></defs></svg>