<svg width="1000" height="315" fill="none" xmlns="http://www.w3.org/2000/svg"><path d="M493.663 122.658c-6.139 4.562-11.823 8.936-17.688 13.052-5.199 3.649-6.205 8.432-4.481 14.149 1.841 6.107 5.596 11.171 8.991 16.441 2.907 4.511 6 8.958 8.372 13.749 5.93 11.979 3.343 23.297-6.984 31.823-6.09 5.028-13.049 8.635-20.179 11.951-38.78 18.036-77.543 36.107-116.322 54.145-2.137.995-4.235 2.234-6.733 2.42-.465.035-.874-.302-.886-.768-.059-2.258 1.439-4.786 2.467-6.8 6.942-13.608 13.533-27.337 13.94-43.029.299-11.533-3.633-21.572-11.722-29.776-4.236-4.296-8.605-8.6-13.492-12.09-18.846-13.457-23.015-33.109-23.528-54.364-.066-2.739.491-5.459-2.211-7.228-3.185-2.085-5.547.22-7.891 1.791-14.205 9.523-26.037 21.878-39.01 32.874-14.513 12.303-29.835 24.882-49.156 25.79-25.645 1.205-44.26 15.709-63.957 28.404C96.121 245.53 7.133 308.751 4.982 310.625c-1.822 1.588-2.818 2.549-3.992 2.501-.436-.017-.839-.308-.948-.73-.233-.906.523-1.663 1.622-2.919 1.333-1.524 103.082-102.198 154.622-153.299 5.351-5.306 11.594-8.434 19.26-7.829 18.538 1.463 34.003-5.145 47.997-16.952 21.543-18.176 44.885-34.263 63.746-55.53 1.764-1.989 4.03-3.55 6.14-5.212 15.744-12.4 28.441-12.695 44.622-.959 12.596 9.136 23.001 20.586 33.534 31.907 7.321 7.87 14.284 16.181 22.33 23.244 18.669 16.388 37.897 32.138 57.446 47.644l-30.382-37.981c-1.671-2.089-.865-5.2 1.568-6.31 27.057-12.344 60.2-37.815 86.363-60 16.079-13.634 29.702-29.839 45.201-44.1 7.428-6.835 15.072-13.37 23.876-18.435 14.48-8.33 26.19-7.637 38.794 3.17C664.832 60 713.774 119.326 759.612 173.79l-28.794-42.361c-1.226-1.805-.788-4.258 1.039-5.452 14.571-9.521 39.867-22.156 51.189-28.007 11.112-5.743 16.172-4.865 24.947 4.359 43.386 45.611 85.058 92.792 127.552 139.221 20.113 21.976 57.958 62.95 60.645 65.646 2.813 3.047 4.28 6.406 3.225 7.017-1.058.611-2.912-.713-6.412-3.213s-115.256-87.049-173.585-130.321c-6.579 7.432-13.026 15.08-19.862 22.364-15.732 16.764-32.853 31.756-54.267 41.045-16.192 7.023-33.02 7.664-50.054 4.509-9.48-1.756-19.026-2.702-28.575-3.769-7.98-.891-14.102-4.3-16.672-12.391-3.655-11.501-11.72-18.477-22.382-23.561-14.741-7.029-29.737-13.663-43.418-22.733-9.907-6.567-10.61-9.707-5.482-20.537 12.751-26.934 22.219-54.707 21.563-85.06-.109-5.015-1.174-9.789-3.061-14.35-3.034-7.337-6.709-8.54-13.601-4.438-17.909 10.659-35.104 22.42-52.24 34.259-12.529 8.656-24.892 17.552-37.704 26.641Z" fill="#E2E2E9"/></svg>