<svg xmlns="http://www.w3.org/2000/svg" data-name="Layer 1" viewBox="0 0 64 64" id="devices"><path d="M28 64H18a8 8 0 0 1-8-8V34a8 8 0 0 1 8-8h10a8 8 0 0 1 8 8v22a8 8 0 0 1-8 8zM18 30a4 4 0 0 0-4 4v22a4 4 0 0 0 4 4h10a4 4 0 0 0 4-4V34a4 4 0 0 0-4-4z" fill="#5757e0" class="color000000 svgShape"></path><path d="M23 58a2 2 0 0 1-1.42-3.41 2.06 2.06 0 0 1 2.83 0A2 2 0 0 1 23 58zm-11-4H8a8 8 0 0 1-8-8V20a8 8 0 0 1 8-8h16a8 8 0 0 1 8 8v8h-4v-8a4 4 0 0 0-4-4H8a4 4 0 0 0-4 4v26a4 4 0 0 0 4 4h4z" fill="#5757e0" class="color000000 svgShape"></path><path d="M56 43H34v-4h22a4 4 0 0 0 4-4V8a4 4 0 0 0-4-4H16a4 4 0 0 0-4 4v7H8V8a8 8 0 0 1 8-8h40a8 8 0 0 1 8 8v27a8 8 0 0 1-8 8zm-12 8H34a2 2 0 0 1 0-4h10a2 2 0 0 1 0 4z" fill="#5757e0" class="color000000 svgShape"></path><path d="M40 51a2 2 0 0 1-2-2v-8a2 2 0 0 1 4 0v8a2 2 0 0 1-2 2z" fill="#5757e0" class="color000000 svgShape"></path></svg>