<svg width="31" height="31" viewBox="0 0 31 31" fill="none" xmlns="http://www.w3.org/2000/svg">
<g clip-path="url(#clip0_1145_45)">
<path d="M26.0015 5.66286C24.0021 4.74841 21.8787 4.08194 19.6623 3.70996C19.3833 4.19044 19.0733 4.8414 18.8563 5.35288C16.4989 5.01189 14.1585 5.01189 11.8336 5.35288C11.6166 4.8414 11.2911 4.19044 11.0276 3.70996C8.79575 4.08194 6.67235 4.74841 4.6869 5.66286C0.672601 11.5836 -0.41235 17.3648 0.130124 23.0685C2.79599 25.0059 5.36889 26.1839 7.89682 26.9589C8.51679 26.1219 9.07477 25.2229 9.55525 24.2775C8.64079 23.9365 7.77283 23.518 6.93587 23.022C7.15286 22.8671 7.36986 22.6966 7.57135 22.5261C12.6241 24.8355 18.0969 24.8355 23.0876 22.5261C23.3046 22.6966 23.5061 22.8671 23.7231 23.022C22.8861 23.518 22.0182 23.9365 21.1037 24.2775C21.5842 25.2229 22.1422 26.1219 22.7621 26.9589C25.2885 26.1839 27.8769 25.0059 30.5288 23.0685C31.1952 16.4659 29.4733 10.7312 26.0015 5.66286ZM10.2527 19.5502C8.73376 19.5502 7.49382 18.1708 7.49382 16.4814C7.49382 14.792 8.70276 13.4125 10.2527 13.4125C11.7871 13.4125 13.0425 14.792 13.0115 16.4814C13.0115 18.1708 11.7871 19.5502 10.2527 19.5502ZM20.4373 19.5502C18.9183 19.5502 17.6768 18.1708 17.6768 16.4814C17.6768 14.792 18.8873 13.4125 20.4373 13.4125C21.9717 13.4125 23.2271 14.792 23.1961 16.4814C23.1961 18.1708 21.9872 19.5502 20.4373 19.5502Z" fill="#5757E0"/>
</g>
<defs>
<clipPath id="clip0_1145_45">
<rect width="30.67" height="30.67" fill="white"/>
</clipPath>
</defs>
</svg>
