<svg width="57" height="57" viewBox="0 0 57 57" fill="none" xmlns="http://www.w3.org/2000/svg">
<g clip-path="url(#clip0_1146_34)">
<path d="M19 19C13.75 19 9.5 23.25 9.5 28.5C9.5 33.75 13.75 38 19 38C13.75 38 9.5 42.25 9.5 47.5C9.5 52.75 13.75 57 19 57C24.25 57 28.5 52.75 28.5 47.5V28.5V19H38C43.25 19 47.5 14.75 47.5 9.5C47.5 4.25 43.25 0 38 0H19C13.75 0 9.5 4.25 9.5 9.5C9.5 14.75 13.75 19 19 19Z" fill="#5757E0"/>
<path d="M38 19C32.75 19 28.5 23.25 28.5 28.5C28.5 33.75 32.75 38 38 38C43.25 38 47.5 33.7656 47.5 28.5C47.5 23.25 43.25 19 38 19Z" fill="#5757E0"/>
</g>
<defs>
<clipPath id="clip0_1146_34">
<rect width="57" height="57" fill="white"/>
</clipPath>
</defs>
</svg>
