<svg width="26" height="26" viewBox="0 0 26 26" fill="none" xmlns="http://www.w3.org/2000/svg">
<g clip-path="url(#clip0_1147_34)">
<path d="M17.468 23.8389C17.468 24.2589 17.768 24.7589 18.568 24.5989C16.368 25.1689 16.218 25.3189 13.468 25.4189C10.718 25.3189 10.608 25.1689 8.40801 24.5989C9.20801 24.7389 9.50801 24.2589 9.50801 23.8389C9.50801 23.4589 9.48801 22.1989 9.48801 20.8589C5.46801 21.5989 4.42801 19.8789 4.10801 18.9789C3.92801 18.5189 3.14801 17.0989 2.46801 16.7189C1.90801 16.4189 1.10801 15.6789 2.44801 15.6589C3.70801 15.6389 4.60801 16.8189 4.90801 17.2989C6.34801 19.7189 8.64801 19.0389 9.56801 18.6189C9.70801 17.5789 10.128 16.8789 10.588 16.4789C7.02801 16.0789 3.30801 14.6989 3.30801 8.57889C3.30801 6.83889 3.92801 5.39889 4.94801 4.27889C4.78801 3.87889 4.22801 2.23889 5.10801 0.0388896C5.10801 0.0388896 6.44801 -0.38111 9.50801 1.67889C10.788 1.31889 12.148 1.13889 13.508 1.13889C14.868 1.13889 16.228 1.31889 17.508 1.67889C20.568 -0.40111 21.908 0.0388896 21.908 0.0388896C22.788 2.23889 22.228 3.87889 22.068 4.27889C23.088 5.39889 23.708 6.81889 23.708 8.57889C23.708 14.7189 19.968 16.0789 16.408 16.4789C16.988 16.9789 17.488 17.9389 17.488 19.4389C17.488 21.5789 17.468 23.2989 17.468 23.8389Z" fill="#5757E0"/>
</g>
<defs>
<clipPath id="clip0_1147_34">
<rect width="25.42" height="25.42" fill="white"/>
</clipPath>
</defs>
</svg>
