<svg width="82" height="30" viewBox="0 0 82 30" fill="none" xmlns="http://www.w3.org/2000/svg">
<g clip-path="url(#clip0_1138_36)">
<path d="M23.8099 14.0122V14.0252L22.7349 18.6912C22.6769 18.9552 22.4129 19.1482 22.1089 19.1482H20.8099C20.763 19.1484 20.7175 19.1637 20.6801 19.1918C20.6426 19.2199 20.6152 19.2593 20.6019 19.3042C19.4039 23.3682 17.7819 26.1612 15.6399 27.8382C13.8179 29.2662 11.5719 29.9322 8.57086 29.9322C5.87486 29.9322 4.05686 29.0652 2.51486 27.3532C0.476862 25.0912 -0.365138 21.3872 0.144862 16.9252C1.06486 8.54818 5.40986 0.0951764 13.7759 0.0951764C16.3209 0.0731764 18.3189 0.858176 19.7089 2.42518C21.1789 4.08318 21.9249 6.57918 21.9289 9.84718C21.9252 9.99043 21.8658 10.1266 21.7633 10.2267C21.6607 10.3268 21.5232 10.383 21.3799 10.3832H15.2499C15.1424 10.3799 15.0404 10.3355 14.9647 10.2593C14.889 10.183 14.8454 10.0806 14.8429 9.97318C14.7929 7.71318 14.1229 6.61318 12.7909 6.61318C10.4409 6.61318 9.05486 9.80318 8.31986 11.5712C7.29286 14.0412 6.76986 16.7242 6.87286 19.3962C6.92186 20.6402 7.12186 22.3892 8.30286 23.1142C9.34986 23.7562 10.8439 23.3302 11.7489 22.6192C12.6529 21.9072 13.3809 20.6762 13.6869 19.5532C13.7299 19.3972 13.7329 19.2762 13.6919 19.2222C13.6489 19.1662 13.5299 19.1532 13.4389 19.1532H11.8649C11.7815 19.1534 11.6992 19.1355 11.6235 19.1006C11.5479 19.0657 11.4808 19.0147 11.4269 18.9512C11.3855 18.9016 11.3561 18.8431 11.3411 18.7803C11.326 18.7176 11.3256 18.6521 11.3399 18.5892L12.4159 13.9152C12.4689 13.6762 12.6859 13.4952 12.9529 13.4632V13.4512H23.2829C23.3069 13.4512 23.3319 13.4512 23.3549 13.4562C23.6229 13.4912 23.8119 13.7402 23.8069 14.0122H23.8099Z" fill="#FFFCE1"/>
<path d="M41.5948 8.65C41.5901 8.7922 41.5303 8.927 41.4281 9.02591C41.3258 9.12482 41.1891 9.18008 41.0468 9.18H35.4008C35.0308 9.18 34.7218 8.88 34.7218 8.515C34.7218 6.868 34.1518 6.066 32.9858 6.066C31.8198 6.066 31.0678 6.782 31.0458 8.033C31.0208 9.428 31.8098 10.696 34.0558 12.874C37.0128 15.648 38.1978 18.105 38.1408 21.353C38.0478 26.605 34.4768 30 29.0428 30C26.2678 30 24.1478 29.258 22.7378 27.794C21.3068 26.307 20.6508 24.125 20.7878 21.309C20.7925 21.1666 20.8524 21.0317 20.9549 20.9327C21.0574 20.8338 21.1943 20.7787 21.3368 20.779H27.1768C27.2581 20.7803 27.3382 20.7996 27.4111 20.8356C27.4841 20.8716 27.5482 20.9233 27.5988 20.987C27.6429 21.0397 27.6752 21.1012 27.6935 21.1675C27.7118 21.2337 27.7156 21.3031 27.7048 21.371C27.6398 22.387 27.8168 23.146 28.2168 23.566C28.4728 23.838 28.8298 23.976 29.2748 23.976C30.3538 23.976 30.9858 23.214 31.0098 21.886C31.0298 20.738 30.6668 19.732 28.6888 17.697C26.1338 15.201 23.8428 12.622 23.9138 8.567C23.9558 6.215 24.8898 4.064 26.5448 2.51C28.2948 0.868 30.6878 0 33.4658 0C36.2488 0.02 38.3578 0.814 39.7348 2.36C41.0388 3.825 41.6658 5.941 41.5968 8.65H41.5948Z" fill="#FFFCE1"/>
<path d="M59.095 29.0119L59.132 1.07891C59.1331 1.00896 59.1201 0.939502 59.094 0.874615C59.0678 0.809728 59.029 0.750724 58.9797 0.701068C58.9304 0.651413 58.8717 0.612108 58.807 0.585464C58.7423 0.55882 58.673 0.545373 58.603 0.545914H49.865C49.571 0.545914 49.442 0.798914 49.358 0.965914L36.706 28.8409V28.8459L36.701 28.8529C36.561 29.1959 36.827 29.5629 37.198 29.5629H43.306C43.636 29.5629 43.855 29.4629 43.962 29.2549L45.175 26.3399C45.324 25.9509 45.352 25.9149 45.776 25.9149H51.612C52.018 25.9149 52.026 25.9229 52.02 26.3199L51.889 29.0299C51.8879 29.0998 51.9008 29.1692 51.9269 29.234C51.953 29.2988 51.9918 29.3578 52.041 29.4074C52.0901 29.457 52.1487 29.4964 52.2133 29.5231C52.2779 29.5498 52.3471 29.5633 52.417 29.5629H58.588C58.6644 29.5639 58.7401 29.548 58.8097 29.5166C58.8793 29.4852 58.9412 29.4388 58.991 29.3809C59.034 29.3306 59.0655 29.2715 59.0835 29.2078C59.1014 29.1441 59.1054 29.0773 59.095 29.0119ZM48.285 19.6859C48.239 19.6862 48.1929 19.6845 48.147 19.6809C48.1256 19.6791 48.1049 19.6727 48.0862 19.662C48.0676 19.6514 48.0515 19.6368 48.0391 19.6192C48.0267 19.6017 48.0183 19.5817 48.0145 19.5605C48.0107 19.5394 48.0115 19.5177 48.017 19.4969C48.029 19.4569 48.046 19.4019 48.071 19.3349L52.447 8.50691C52.4863 8.40008 52.5318 8.29557 52.583 8.19391C52.654 8.04791 52.74 8.03791 52.767 8.14591C52.79 8.23591 52.265 19.2639 52.265 19.2639C52.224 19.6769 52.205 19.6939 51.798 19.7279L48.289 19.6879H48.281L48.285 19.6859Z" fill="#FFFCE1"/>
<path d="M71.5431 0.545969H66.9041C66.6591 0.545969 66.3841 0.675969 66.3201 0.967969L59.8641 28.998C59.85 29.0612 59.8507 29.1268 59.8659 29.1897C59.8812 29.2526 59.9107 29.3112 59.9521 29.361C60.006 29.4243 60.0729 29.4752 60.1484 29.5101C60.2239 29.545 60.306 29.563 60.3891 29.563H66.1871C66.4991 29.563 66.7121 29.41 66.7701 29.145L67.4741 25.968C67.5241 25.72 67.4382 25.528 67.2162 25.412C67.112 25.3583 67.008 25.3043 66.9041 25.25L65.8992 24.727L64.8992 24.205L64.5121 24.004C64.4807 23.9883 64.4543 23.964 64.436 23.9339C64.4178 23.9038 64.4085 23.8691 64.4091 23.834C64.4105 23.7819 64.4321 23.7324 64.4695 23.6961C64.5069 23.6599 64.5571 23.6397 64.6091 23.64L67.7862 23.654C68.7362 23.659 69.6871 23.592 70.6221 23.42C77.2021 22.205 81.5721 16.935 81.6981 9.76397C81.8061 3.64397 78.3901 0.542969 71.5481 0.542969L71.5431 0.545969ZM69.9641 17.226H69.8401C69.5611 17.226 69.5121 17.196 69.5041 17.186C69.4991 17.179 71.3361 9.11297 71.3371 9.10197C71.3841 8.86897 71.3821 8.73497 71.2381 8.65597C71.0541 8.55397 68.3721 7.13997 68.3721 7.13997C68.341 7.12357 68.315 7.09877 68.2971 7.06838C68.2793 7.03798 68.2703 7.0032 68.2712 6.96797C68.2725 6.91659 68.2938 6.86776 68.3306 6.83189C68.3674 6.79602 68.4168 6.77595 68.4682 6.77597H72.7091C74.0291 6.81597 74.7652 7.99697 74.7302 10.014C74.6692 13.505 73.0091 17.103 69.9641 17.226Z" fill="#FFFCE1"/>
</g>
<defs>
<clipPath id="clip0_1138_36">
<rect width="82" height="30" fill="white"/>
</clipPath>
</defs>
</svg>
