<svg width="1000" height="1000" viewBox="0 0 1000 1000" fill="none" xmlns="http://www.w3.org/2000/svg">
<g clip-path="url(#clip0_724_2)">
<path fill-rule="evenodd" clip-rule="evenodd" d="M453.125 906.25C703.379 906.25 906.25 703.379 906.25 453.125C906.25 210.538 715.619 12.4746 475.987 0.566732C483.944 0.19049 491.95 0.000244141 500 0.000244141C776.142 0.000244141 1000 223.858 1000 500C1000 776.143 776.142 1000 500 1000C223.858 1000 0 776.143 0 500C0 491.949 0.190288 483.943 0.566612 475.985C12.4732 715.617 210.537 906.25 453.125 906.25Z" fill="#1B1B32"/>
<path fill-rule="evenodd" clip-rule="evenodd" d="M512.306 101.812C310.385 73.0317 123.365 213.389 94.5839 415.31C94.3595 416.884 94.1454 418.458 93.9416 420.03C90.6371 393.704 90.7464 366.507 94.6709 338.973C118.395 172.53 272.556 56.8321 439 80.5561C466.553 84.4833 492.715 91.9848 517.084 102.525C515.495 102.277 513.902 102.04 512.306 101.812Z" fill="url(#paint0_linear_724_2)"/>
<path fill-rule="evenodd" clip-rule="evenodd" d="M570.302 335.03C552.305 327.549 529.905 323.809 503.104 323.809H463.298C450.655 323.809 440.002 333.247 438.479 345.798L376.827 854H305L374.061 282.879C375.639 269.822 386.72 260 399.873 260H505.421C547.339 260 582.364 266.826 610.494 280.477L570.302 335.03Z" fill="#1B1B32"/>
<mask id="mask0_724_2" style="mask-type:alpha" maskUnits="userSpaceOnUse" x="395" y="177" width="354" height="568">
<rect x="459.349" y="177.312" width="291.721" height="536.767" transform="rotate(6.83837 459.349 177.312)" fill="url(#paint1_linear_724_2)"/>
</mask>
<g mask="url(#mask0_724_2)">
<path d="M305.175 854.105L374.341 282.929C375.922 269.874 387.002 260.055 400.153 260.055H505.899C552.503 260.055 590.598 268.467 620.184 285.29C649.964 301.921 672.009 324.449 686.319 352.875C700.628 381.301 707.783 413.015 707.783 448.016C707.783 483.017 700.628 514.827 686.319 543.447C672.202 572.066 650.351 594.885 620.764 611.902C591.178 628.726 553.276 637.137 507.059 637.137H432.193L441.528 573.323H504.739C536.646 573.323 562.268 567.812 581.606 556.79C600.943 545.767 614.963 530.878 623.665 512.12C632.56 493.169 637.008 471.801 637.008 448.016C637.008 424.231 632.56 402.96 623.665 384.202C614.963 365.445 600.847 350.748 581.316 340.112C561.785 329.283 535.872 323.869 503.579 323.869H463.675C451.034 323.869 440.382 333.305 438.857 345.854L377.111 854.105H305.175Z" fill="url(#paint2_linear_724_2)"/>
</g>
<path d="M329.85 649.933L400.318 658.461L376.492 857.481C373.215 884.858 394.593 908.949 422.166 908.949L515.625 908.948L482.935 958.541L365.465 946.473L295.65 931.703L329.85 649.933Z" fill="#1B1B32"/>
</g>
<defs>
<linearGradient id="paint0_linear_724_2" x1="331" y1="302.5" x2="152" y2="97.4999" gradientUnits="userSpaceOnUse">
<stop stop-color="#E07757"/>
<stop offset="0.333333" stop-color="#E07757"/>
<stop offset="0.666667" stop-color="#E05797"/>
<stop offset="1" stop-color="#E05797"/>
</linearGradient>
<linearGradient id="paint1_linear_724_2" x1="780.718" y1="424.493" x2="457.485" y2="324.267" gradientUnits="userSpaceOnUse">
<stop/>
<stop offset="0.681519"/>
<stop offset="1" stop-color="white" stop-opacity="0"/>
</linearGradient>
<linearGradient id="paint2_linear_724_2" x1="708.161" y1="567.051" x2="372.682" y2="296.918" gradientUnits="userSpaceOnUse">
<stop stop-color="#8557E0"/>
<stop offset="0.494792" stop-color="#5785E0"/>
<stop offset="1" stop-color="#5785E0"/>
</linearGradient>
<clipPath id="clip0_724_2">
<rect width="1000" height="1000" rx="500" fill="white"/>
</clipPath>
</defs>
</svg>
