<svg width="64" height="64" viewBox="0 0 64 64" fill="none" xmlns="http://www.w3.org/2000/svg">
<g clip-path="url(#clip0_1142_34)">
<path d="M15.9231 64H7.07692C5.20001 64 3.39996 63.2459 2.07278 61.9035C0.745602 60.5611 0 58.7405 0 56.8421V37.1579C0 35.2595 0.745602 33.4389 2.07278 32.0965C3.39996 30.7541 5.20001 30 7.07692 30H15.9231C17.8 30 19.6 30.7541 20.9272 32.0965C22.2544 33.4389 23 35.2595 23 37.1579V56.8421C23 58.7405 22.2544 60.5611 20.9272 61.9035C19.6 63.2459 17.8 64 15.9231 64ZM7.07692 33.5789C6.13846 33.5789 5.23844 33.956 4.57485 34.6272C3.91126 35.2984 3.53846 36.2087 3.53846 37.1579V56.8421C3.53846 57.7913 3.91126 58.7016 4.57485 59.3728C5.23844 60.044 6.13846 60.4211 7.07692 60.4211H15.9231C16.8615 60.4211 17.7616 60.044 18.4251 59.3728C19.0887 58.7016 19.4615 57.7913 19.4615 56.8421V37.1579C19.4615 36.2087 19.0887 35.2984 18.4251 34.6272C17.7616 33.956 16.8615 33.5789 15.9231 33.5789H7.07692Z" fill="#5757E0"/>
<path d="M10.3911 57.6373C10.72 57.8564 11.1064 57.9732 11.5016 57.9729C11.8959 57.9712 12.281 57.853 12.6083 57.6332C12.9357 57.4133 13.1907 57.1015 13.3414 56.7371C13.4921 56.3727 13.5317 55.9719 13.4552 55.585C13.3787 55.1982 13.1896 54.8425 12.9116 54.5629C12.5291 54.2014 12.0228 54 11.4966 54C10.9703 54 10.464 54.2014 10.0816 54.5629C9.80298 54.8431 9.61364 55.1997 9.53749 55.5875C9.46133 55.9752 9.50177 56.3769 9.65369 56.7417C9.80561 57.1065 10.0622 57.4182 10.3911 57.6373Z" fill="#5757E0"/>
<path fill-rule="evenodd" clip-rule="evenodd" d="M40 64C37.8783 64 35.8434 63.1571 34.3431 61.6569C32.8429 60.1566 32 58.1217 32 56V30C32 27.8783 32.8429 25.8434 34.3431 24.3431C35.8434 22.8429 37.8783 22 40 22H56C58.1217 22 60.1566 22.8429 61.6569 24.3431C63.1571 25.8434 64 27.8783 64 30V56C64 58.1217 63.1571 60.1566 61.6569 61.6569C60.1566 63.1571 58.1217 64 56 64H40ZM58.8284 27.1716C59.5786 27.9217 60 28.9391 60 30V56C60 57.0609 59.5786 58.0783 58.8284 58.8284C58.0783 59.5786 57.0609 60 56 60H40C38.9391 60 37.9217 59.5786 37.1716 58.8284C36.4214 58.0783 36 57.0609 36 56V30C36 28.9391 36.4214 27.9217 37.1716 27.1716C37.9217 26.4214 38.9391 26 40 26H56C57.0609 26 58.0783 26.4214 58.8284 27.1716Z" fill="#5757E0"/>
<path d="M56 24V8C56 6.93913 55.5786 5.92172 54.8284 5.17157C54.0783 4.42143 53.0609 4 52 4H12C10.9391 4 9.92172 4.42143 9.17157 5.17157C8.42143 5.92172 8 6.93913 8 8V32H4V8C4 5.87827 4.84285 3.84344 6.34315 2.34315C7.84344 0.842855 9.87827 0 12 0L52 0C54.1217 0 56.1566 0.842855 57.6569 2.34315C59.1571 3.84344 60 5.87827 60 8V24H56Z" fill="#5757E0"/>
<path d="M22 39H33V51C33 51 25 51 24 51C23 51 22 50.5 22 49C22 47.5 23 47 24 47C25 47 30 47 30 47V43H22V39Z" fill="#5757E0"/>
</g>
<defs>
<clipPath id="clip0_1142_34">
<rect width="64" height="64" fill="white"/>
</clipPath>
</defs>
</svg>
