<svg width="52" height="52" viewBox="0 0 52 52" fill="none" xmlns="http://www.w3.org/2000/svg">
<g clip-path="url(#clip0_1148_40)">
<path fill-rule="evenodd" clip-rule="evenodd" d="M25.517 10.2949C18.712 10.2949 14.46 13.6769 12.758 20.4409C15.31 17.0589 18.287 15.7909 21.689 16.6359C23.63 17.1179 25.018 18.5179 26.553 20.0679C29.055 22.5919 31.951 25.5129 38.275 25.5129C45.079 25.5129 49.332 22.1309 51.033 15.3679C48.482 18.7499 45.505 20.0179 42.103 19.1719C40.161 18.6899 38.773 17.2899 37.238 15.7409C34.736 13.2149 31.841 10.2949 25.517 10.2949ZM12.758 25.5129C5.954 25.5129 1.701 28.8949 0 35.6589C2.552 32.2769 5.529 31.0089 8.93 31.8539C10.872 32.3359 12.26 33.7359 13.795 35.2859C16.297 37.8099 19.192 40.7309 25.517 40.7309C32.321 40.7309 36.574 37.3499 38.275 30.5859C35.723 33.9679 32.746 35.2359 29.344 34.3909C27.403 33.9079 26.015 32.5079 24.48 30.9589C21.978 28.4349 19.082 25.5129 12.758 25.5129Z" fill="#5757E0"/>
</g>
<defs>
<clipPath id="clip0_1148_40">
<rect width="51.03" height="51.03" fill="white"/>
</clipPath>
</defs>
</svg>
