<svg width="48" height="48" viewBox="0 0 48 48" fill="none" xmlns="http://www.w3.org/2000/svg">
<path fill-rule="evenodd" clip-rule="evenodd" d="M6.34 6.34C4 8.69 4 12.46 4 20V28V28.0954C3.99996 35.5719 3.99994 39.3299 6.34 41.66C8.69 44 12.46 44 20 44H28H28.0954C35.5719 44 39.3299 44.0001 41.66 41.66C44 39.31 44 35.54 44 28V20V19.9046C44 12.4281 44.0001 8.67011 41.66 6.34C39.31 4 35.54 4 28 4H20H19.9046C12.4281 3.99996 8.67011 3.99994 6.34 6.34ZM16.5 14.25H31.5C32.0967 14.25 32.669 14.4871 33.091 14.909C33.5129 15.331 33.75 15.9033 33.75 16.5V19.25H14.25V16.5C14.25 15.9033 14.4871 15.331 14.909 14.909C15.331 14.4871 15.9033 14.25 16.5 14.25ZM17.5 17.75H18.5C18.6989 17.75 18.8897 17.671 19.0303 17.5303C19.171 17.3897 19.25 17.1989 19.25 17C19.25 16.8011 19.171 16.6103 19.0303 16.4697C18.8897 16.329 18.6989 16.25 18.5 16.25H17.5C17.3011 16.25 17.1103 16.329 16.9697 16.4697C16.829 16.6103 16.75 16.8011 16.75 17C16.75 17.1989 16.829 17.3897 16.9697 17.5303C17.1103 17.671 17.3011 17.75 17.5 17.75ZM20.5 17.75H21.5C21.6989 17.75 21.8897 17.671 22.0303 17.5303C22.171 17.3897 22.25 17.1989 22.25 17C22.25 16.8011 22.171 16.6103 22.0303 16.4697C21.8897 16.329 21.6989 16.25 21.5 16.25H20.5C20.3011 16.25 20.1103 16.329 19.9697 16.4697C19.829 16.6103 19.75 16.8011 19.75 17C19.75 17.1989 19.829 17.3897 19.9697 17.5303C20.1103 17.671 20.3011 17.75 20.5 17.75ZM14.909 33.091C14.4871 32.669 14.25 32.0967 14.25 31.5V20.75H33.75V31.5C33.75 32.0967 33.5129 32.669 33.091 33.091C32.669 33.5129 32.0967 33.75 31.5 33.75H16.5C15.9033 33.75 15.331 33.5129 14.909 33.091ZM24.7363 23.9434C24.7213 24.146 24.7874 24.3462 24.92 24.5L27 27L24.92 29.52C24.7945 29.6746 24.7347 29.8722 24.7534 30.0704C24.7721 30.2687 24.8678 30.4516 25.02 30.58C25.1565 30.6888 25.3255 30.7486 25.5 30.75C25.6105 30.7499 25.7196 30.7256 25.8198 30.679C25.92 30.6324 26.0088 30.5645 26.08 30.48L28 28.17L29.94 30.48C30.0112 30.5645 30.1 30.6324 30.2002 30.679C30.3004 30.7256 30.4095 30.7499 30.52 30.75C30.6945 30.7486 30.8635 30.6888 31 30.58C31.1522 30.4516 31.2479 30.2687 31.2666 30.0704C31.2853 29.8722 31.2255 29.6746 31.1 29.52L29 27L31.08 24.52C31.1457 24.4438 31.1957 24.3555 31.2272 24.26C31.2587 24.1645 31.2711 24.0637 31.2637 23.9634C31.2562 23.8631 31.2291 23.7653 31.1839 23.6755C31.1387 23.5857 31.0762 23.5057 31 23.44C30.9238 23.3743 30.8355 23.3243 30.74 23.2928C30.6445 23.2613 30.5437 23.2489 30.4434 23.2563C30.3431 23.2638 30.2453 23.2909 30.1555 23.3361C30.0657 23.3813 29.9857 23.4438 29.92 23.52L28 25.83L26.08 23.5C25.9474 23.3462 25.7591 23.2513 25.5566 23.2363C25.354 23.2213 25.1538 23.2874 25 23.42C24.8462 23.5526 24.7513 23.7409 24.7363 23.9434ZM16.9697 23.4697C16.829 23.6103 16.75 23.8011 16.75 24V27.51C16.75 28.372 17.0924 29.1986 17.7019 29.8081C18.3114 30.4176 19.138 30.76 20 30.76C20.862 30.76 21.6886 30.4176 22.2981 29.8081C22.9076 29.1986 23.25 28.372 23.25 27.51V24C23.25 23.8011 23.171 23.6103 23.0303 23.4697C22.8897 23.329 22.6989 23.25 22.5 23.25C22.3011 23.25 22.1103 23.329 21.9697 23.4697C21.829 23.6103 21.75 23.8011 21.75 24V27.51C21.75 27.9741 21.5656 28.4192 21.2374 28.7474C20.9092 29.0756 20.4641 29.26 20 29.26C19.5359 29.26 19.0908 29.0756 18.7626 28.7474C18.4344 28.4192 18.25 27.9741 18.25 27.51V24C18.25 23.8011 18.171 23.6103 18.0303 23.4697C17.8897 23.329 17.6989 23.25 17.5 23.25C17.3011 23.25 17.1103 23.329 16.9697 23.4697Z" fill="#5757E0"/>
</svg>
