<svg width="1000" height="1000" viewBox="0 0 1000 1000" fill="none" xmlns="http://www.w3.org/2000/svg">
	<path fill-rule="evenodd" clip-rule="evenodd" d="M499.508 1000C769.855 1000 989.016 780.84 989.016 510.492C989.016 240.145 769.855 20.9846 499.508 20.9846C478.755 20.9846 458.305 22.2759 438.232 24.7827C443.658 24.5849 449.109 24.4852 454.583 24.4852C698.186 24.4852 895.665 221.964 895.665 465.567C895.665 709.17 698.186 906.649 454.583 906.649C210.98 906.649 13.5006 709.17 13.5006 465.567C13.5006 460.093 13.6003 454.642 13.7981 449.217C11.2913 469.29 10 489.74 10 510.492C10 780.84 229.16 1000 499.508 1000Z" fill="#2B2B2B"/>
	<path fill-rule="evenodd" clip-rule="evenodd" d="M512.306 101.812C310.385 73.0318 123.365 213.39 94.5839 415.31C94.3595 416.885 94.1454 418.458 93.9416 420.03C90.6371 393.704 90.7464 366.507 94.6709 338.974C118.395 172.53 272.556 56.8323 439 80.5562C466.553 84.4835 492.715 91.985 517.084 102.525C515.495 102.278 513.902 102.04 512.306 101.812Z" fill="url(#paint0_linear_203_13)"/>
	<path fill-rule="evenodd" clip-rule="evenodd" d="M570.302 335.03C552.305 327.549 529.905 323.809 503.104 323.809H463.298C450.655 323.809 440.002 333.247 438.479 345.798L376.827 854H305L374.061 282.879C375.639 269.822 386.72 260 399.873 260H505.421C547.339 260 582.364 266.826 610.494 280.477L570.302 335.03Z" fill="#2B2B2B"/>
	<mask id="mask0_203_13" style="mask-type:alpha" maskUnits="userSpaceOnUse" x="395" y="177" width="354" height="568">
		<rect x="459.349" y="177.312" width="291.721" height="536.767" transform="rotate(6.83837 459.349 177.312)" fill="url(#paint1_linear_203_13)"/>
	</mask>
	<g mask="url(#mask0_203_13)">
		<path d="M305.175 854.105L374.341 282.929C375.922 269.874 387.002 260.055 400.153 260.055H505.899C552.503 260.055 590.598 268.467 620.184 285.29C649.964 301.921 672.009 324.449 686.319 352.875C700.628 381.301 707.783 413.015 707.783 448.016C707.783 483.017 700.628 514.827 686.319 543.447C672.202 572.066 650.351 594.885 620.764 611.902C591.178 628.726 553.276 637.137 507.059 637.137H432.193L441.528 573.323H504.739C536.646 573.323 562.268 567.812 581.606 556.79C600.943 545.767 614.963 530.878 623.665 512.12C632.56 493.169 637.008 471.801 637.008 448.016C637.008 424.231 632.56 402.96 623.665 384.202C614.963 365.445 600.847 350.748 581.316 340.112C561.785 329.283 535.872 323.869 503.579 323.869H463.675C451.034 323.869 440.382 333.305 438.857 345.854L377.111 854.105H305.175Z" fill="url(#paint2_linear_203_13)"/>
	</g>
	<path d="M329.85 649.933L400.319 658.461L376.493 857.48C373.215 884.858 394.594 908.948 422.167 908.948L515.625 908.948L482.935 958.541L365.465 946.473L295.651 931.703L329.85 649.933Z" fill="#2B2B2B"/>
	<defs>
		<linearGradient id="paint0_linear_203_13" x1="262.358" y1="261.1" x2="182.12" y2="156.057" gradientUnits="userSpaceOnUse">
			<stop stop-color="#FF00FF"/>
			<stop offset="1" stop-color="#FFAA00"/>
		</linearGradient>
		<linearGradient id="paint1_linear_203_13" x1="543.47" y1="484.54" x2="438.922" y2="465.346" gradientUnits="userSpaceOnUse">
			<stop/>
			<stop offset="1" stop-color="white" stop-opacity="0"/>
		</linearGradient>
		<linearGradient id="paint2_linear_203_13" x1="708.161" y1="567.051" x2="372.682" y2="296.918" gradientUnits="userSpaceOnUse">
			<stop stop-color="#AA00FF"/>
			<stop offset="1" stop-color="#00FFFF"/>
		</linearGradient>
	</defs>
</svg>
