<svg width="1000" height="315" viewBox="0 0 1000 315" fill="none" xmlns="http://www.w3.org/2000/svg">
<path d="M493.663 122.658C487.524 127.22 481.84 131.594 475.975 135.71C470.776 139.359 469.77 144.142 471.494 149.859C473.335 155.966 477.09 161.03 480.485 166.3C483.392 170.811 486.485 175.258 488.857 180.049C494.787 192.028 492.2 203.346 481.873 211.872C475.783 216.9 468.824 220.507 461.694 223.823C422.914 241.859 384.151 259.93 345.372 277.968C343.235 278.963 341.137 280.202 338.639 280.388C338.174 280.423 337.765 280.086 337.753 279.62C337.694 277.362 339.192 274.834 340.22 272.82C347.162 259.212 353.753 245.483 354.16 229.791C354.459 218.258 350.527 208.219 342.438 200.015C338.202 195.719 333.833 191.415 328.946 187.925C310.1 174.468 305.931 154.816 305.418 133.561C305.352 130.822 305.909 128.102 303.207 126.333C300.022 124.248 297.66 126.553 295.316 128.124C281.111 137.647 269.279 150.002 256.306 160.998C241.793 173.301 226.471 185.88 207.15 186.788C181.505 187.993 162.89 202.497 143.193 215.192C96.1207 245.53 7.13224 308.751 4.98195 310.625C3.16031 312.213 2.16421 313.174 0.990276 313.126C0.5542 313.109 0.151358 312.818 0.0424403 312.396C-0.191055 311.49 0.565243 310.733 1.66421 309.477C2.99675 307.953 104.746 207.279 156.286 156.178C161.637 150.872 167.88 147.744 175.546 148.349C194.084 149.812 209.549 143.204 223.543 131.397C245.086 113.221 268.428 97.1335 287.289 75.8676C289.053 73.8785 291.319 72.3165 293.429 70.6547C309.173 58.2554 321.87 57.9603 338.051 69.6965C350.647 78.8322 361.052 90.2822 371.585 101.603C378.906 109.473 385.869 117.784 393.915 124.847C412.584 141.235 431.812 156.985 451.361 172.491C441.188 159.774 431.015 147.056 420.979 134.51C419.308 132.421 420.114 129.31 422.547 128.2C449.604 115.856 482.747 90.385 508.91 68.2005C524.989 54.5661 538.612 38.3614 554.111 24.1003C561.539 17.265 569.183 10.7294 577.987 5.66463C592.467 -2.66562 604.177 -1.9724 616.781 8.83579C664.832 60 713.774 119.325 759.612 173.79C749.946 159.569 740.279 145.347 730.818 131.429C729.592 129.624 730.03 127.171 731.857 125.977C746.428 116.456 771.724 103.821 783.046 97.9698C794.158 92.2265 799.218 93.1048 807.993 102.329C851.379 147.94 893.051 195.121 935.545 241.55C955.658 263.526 993.503 304.5 996.19 307.196C999.003 310.243 1000.47 313.602 999.415 314.213C998.357 314.824 996.503 313.5 993.003 311C989.503 308.5 877.747 223.951 819.418 180.679C812.839 188.111 806.392 195.759 799.556 203.043C783.824 219.807 766.703 234.799 745.289 244.088C729.097 251.111 712.269 251.752 695.235 248.597C685.755 246.841 676.209 245.895 666.66 244.828C658.68 243.937 652.558 240.528 649.988 232.437C646.333 220.936 638.268 213.96 627.606 208.876C612.865 201.847 597.869 195.213 584.188 186.143C574.281 179.576 573.578 176.436 578.706 165.606C591.457 138.672 600.925 110.899 600.269 80.5469C600.16 75.5309 599.095 70.7574 597.208 66.1959C594.174 58.8591 590.499 57.6558 583.607 61.7579C565.698 72.4168 548.503 84.1778 531.367 96.0166C518.838 104.673 506.475 113.569 493.663 122.658Z" fill="#E2E2E9"/>
</svg>
