<svg viewBox="0 0 178 178" fill="none" xmlns="http://www.w3.org/2000/svg">
<mask id="mask0_1660_760" style="mask-type:alpha" maskUnits="userSpaceOnUse" x="38" y="0" width="101" height="178">
<path d="M38.89 50C38.89 22.3858 61.2758 0 88.89 0H138.89V127.778C138.89 155.392 116.504 177.778 88.89 177.778H38.89V50Z" fill="#D9D9D9"/>
</mask>
<g mask="url(#mask0_1660_760)">
<path d="M38.89 50C38.89 22.3858 61.2758 0 88.89 0H138.89V127.778C138.89 155.392 116.504 177.778 88.89 177.778H38.89V50Z" fill="#E9F2FF"/>
<path d="M88.8768 125.999C88.2257 150.734 63.5578 177.78 38.89 177.78H137.89C138.442 177.78 138.89 177.342 138.89 176.79V75.0015C138.89 99.6667 114.552 124.335 89.8898 124.988C89.3377 125.003 88.8914 125.447 88.8768 125.999Z" fill="#6367EF"/>
<path d="M87.4414 64.7831C87.7199 65.1613 88.0239 65.2753 88.5167 65.1237C89.4298 64.7812 89.8478 64.2872 90.8112 63.8041C92.4318 63.0333 93.4578 64.3253 94.1379 65.8685C95.5086 68.8157 96.9888 72.0179 98.3597 74.965C98.5116 75.2918 98.3597 75.3517 98.0557 75.1931C95.7377 73.9771 93.3057 73.0651 91.4097 75.9572C89.9238 78.081 87.1118 77.663 86.8839 77.777C86.6939 77.8531 86.6041 78.0662 86.6939 78.2331C87.2259 79.221 88.5179 80.513 89.3633 81.4776C90.2983 82.5807 91.2542 83.7452 91.3233 85.2135C91.4149 87.1625 92.0518 87.7329 93.4819 90.0742C95.3577 93.0526 99.2337 98.5245 100.754 100.615C100.982 100.928 100.861 101.071 100.64 100.843C99.3096 99.4744 93.1537 93.2806 88.9969 89.0791C88.5941 88.672 88.3559 88.198 88.402 87.6154C88.5132 86.2065 88.0109 85.0312 87.1137 83.9676C85.7322 82.3304 84.5097 80.5564 82.8935 79.123C81.3874 77.7872 81.488 76.5564 82.4245 75.2652C83.6919 73.5176 84.6799 73.0271 86.6159 71.0196C87.8613 69.6008 89.0583 68.1394 90.2368 66.6538C89.2796 67.4194 88.4744 68.0536 87.5298 68.8091C87.1669 69.0995 86.9529 69.0527 86.7699 68.6572C85.8228 66.6109 83.9821 64.2511 82.3108 62.2801C80.462 60.1834 78.676 58.8913 77.5581 57.0304C76.8141 56.0034 76.548 55.2757 77.7991 54.0821C81.6401 50.4176 86.1962 46.7108 90.3355 43.2271C89.2872 43.9397 88.2389 44.6521 87.2116 45.3505C86.9599 45.5215 86.8159 45.5156 86.6455 45.2496C85.9291 44.1311 85.0065 42.2846 84.5732 41.4462C84.1367 40.6016 84.2035 40.2171 84.9045 39.5502C89.9998 34.7034 95.3712 30.1021 100.564 25.1479C100.859 24.8664 101.09 24.9963 100.792 25.4139C100.303 26.0979 94.1476 34.249 90.859 38.682C92.7226 40.3317 94.6628 41.9753 95.678 44.3157C96.2117 45.5462 96.2604 46.8251 96.0206 48.1197C95.8872 48.8402 95.8153 49.5656 95.7343 50.2913C95.6665 50.8978 95.4074 51.3631 94.7926 51.5584C93.9185 51.8361 93.3883 52.4492 93.002 53.2594C92.4677 54.3798 91.9636 55.5193 91.2743 56.5591C90.7752 57.3121 90.5366 57.3655 89.7134 56.9758C87.6059 55.978 83.9959 54.8097 82.1584 55.5696C81.6009 55.8002 81.5094 56.0795 81.8212 56.6033C83.5185 59.4552 85.6668 61.9927 87.4414 64.7831Z" fill="#5154C6"/>
</g>
</svg>