<svg viewBox="0 0 31 31" xmlns="http://www.w3.org/2000/svg"><path d="M26 5.66a25.3 25.3 0 0 0-6.34-1.95 14.6 14.6 0 0 0-.8 1.64c-2.36-.34-4.7-.34-7.03 0-.21-.5-.54-1.16-.8-1.64a24.94 24.94 0 0 0-6.34 1.95 25.53 25.53 0 0 0-4.56 17.4 25.84 25.84 0 0 0 7.77 3.9 18.9 18.9 0 0 0 1.66-2.68c-.92-.34-1.79-.76-2.62-1.26.21-.15.43-.32.63-.5a18.24 18.24 0 0 0 15.52 0c.21.18.42.35.63.5-.83.5-1.7.92-2.62 1.26a18.9 18.9 0 0 0 1.66 2.68 25.7 25.7 0 0 0 7.77-3.9A25.37 25.37 0 0 0 26 5.67ZM10.25 19.55c-1.52 0-2.76-1.38-2.76-3.07s1.21-3.07 2.76-3.07c1.54 0 2.8 1.38 2.76 3.07 0 1.7-1.22 3.07-2.76 3.07Zm10.19 0c-1.52 0-2.76-1.38-2.76-3.07s1.2-3.07 2.76-3.07c1.53 0 2.79 1.38 2.76 3.07 0 1.7-1.21 3.07-2.76 3.07Z" fill="#fff"/></svg>