<svg xmlns="http://www.w3.org/2000/svg" viewBox="0 0 33 49"><path fill="#00B6FF" d="M16.5 23.61a7.28 7.28 0 0 1 7.28-7.28h1.05a8.17 8.17 0 1 1 0 16.34h-1.05a7.28 7.28 0 0 1-7.28-7.28z"/><path fill="#24CB71" d="M0 40.83a8.17 8.17 0 0 1 8.17-8.16h8.33v8.08A8.29 8.29 0 0 1 8.2 49 8.2 8.2 0 0 1 0 40.83"/><path fill="#FF7237" d="M16.5 0v16.33h8.33a8.17 8.17 0 1 0 0-16.33z"/><path fill="#FF3737" d="M0 8.17a8.17 8.17 0 0 0 8.17 8.16h8.33V0H8.17A8.17 8.17 0 0 0 0 8.17"/><path fill="#874FFF" d="M0 24.5a8.17 8.17 0 0 0 8.17 8.17h8.33V16.33H8.17A8.17 8.17 0 0 0 0 24.5"/></svg>