<svg viewBox="0 0 82 30" xmlns="http://www.w3.org/2000/svg"><path d="M23.81 14.01v.02l-1.08 4.66c-.05.27-.32.46-.62.46h-1.3a.22.22 0 0 0-.2.15c-1.2 4.07-2.83 6.86-4.97 8.54-1.82 1.43-4.07 2.1-7.07 2.1-2.7 0-4.51-.87-6.06-2.59C.48 25.1-.37 21.4.14 16.93 1.06 8.55 5.41.1 13.78.1c2.54-.03 4.54.76 5.93 2.33 1.47 1.65 2.21 4.15 2.22 7.42a.55.55 0 0 1-.55.53h-6.13a.42.42 0 0 1-.4-.4c-.06-2.27-.73-3.37-2.06-3.37-2.35 0-3.74 3.2-4.47 4.96a18.6 18.6 0 0 0-1.45 7.83c.05 1.24.25 2.99 1.43 3.71 1.05.65 2.54.22 3.45-.5a6.18 6.18 0 0 0 1.94-3.06c.04-.15.04-.27 0-.33-.04-.05-.16-.07-.25-.07h-1.58a.57.57 0 0 1-.43-.2.42.42 0 0 1-.09-.36l1.08-4.67a.61.61 0 0 1 .53-.46h10.4c.27.03.46.28.46.55Z"/><path d="M41.6 8.65a.55.55 0 0 1-.55.53H35.4a.68.68 0 0 1-.68-.66c0-1.65-.57-2.45-1.73-2.45-1.17 0-1.92.71-1.94 1.96-.03 1.4.76 2.67 3 4.84 2.96 2.78 4.15 5.24 4.1 8.48-.1 5.25-3.67 8.65-9.1 8.65-2.78 0-4.9-.74-6.31-2.2-1.43-1.5-2.09-3.68-1.95-6.5a.55.55 0 0 1 .55-.52h5.84a.55.55 0 0 1 .51.39c.02.06.03.13.01.2-.06 1.02.12 1.78.52 2.2.25.27.61.4 1.05.4 1.08 0 1.72-.76 1.74-2.08.02-1.15-.34-2.16-2.32-4.2-2.56-2.49-4.85-5.07-4.78-9.12.05-2.36.98-4.5 2.63-6.06A9.88 9.88 0 0 1 33.47 0c2.78.02 4.89.81 6.26 2.36 1.3 1.47 1.94 3.58 1.87 6.29Zm17.5 20.36.03-27.93a.53.53 0 0 0-.53-.53h-8.73c-.3 0-.43.25-.51.42L36.7 28.84v.01c-.15.35.12.71.49.71h6.1c.34 0 .55-.1.66-.3l1.21-2.92c.15-.39.18-.43.6-.43h5.84c.4 0 .42.01.41.41l-.13 2.71a.52.52 0 0 0 .53.53h6.17a.52.52 0 0 0 .4-.18.46.46 0 0 0 .1-.37ZM48.27 19.7h-.13a.15.15 0 0 1-.13-.2l.05-.16 4.38-10.82a3 3 0 0 1 .13-.32c.07-.14.16-.15.19-.04.02.09-.5 11.11-.5 11.11-.05.42-.07.43-.47.47l-3.51-.04ZM71.54.55H66.9c-.24 0-.52.13-.58.42L59.86 29a.42.42 0 0 0 .1.36.57.57 0 0 0 .43.2h5.8c.3 0 .52-.15.58-.41l.7-3.18c.05-.25-.03-.44-.25-.56l-.32-.16-1-.52-1-.53-.39-.2a.19.19 0 0 1-.1-.17.2.2 0 0 1 .2-.19l3.18.01c.95 0 1.9-.06 2.83-.23C77.2 22.2 81.57 16.93 81.7 9.76 81.8 3.64 78.39.54 71.55.54Zm-1.58 16.68h-.12c-.28 0-.33-.03-.34-.04l1.84-8.09c.04-.23.04-.37-.1-.44l-2.87-1.52a.19.19 0 0 1-.1-.17.2.2 0 0 1 .2-.2h4.24c1.32.05 2.06 1.23 2.02 3.24-.06 3.5-1.72 7.1-4.77 7.22Z"/></svg>