<svg xmlns="http://www.w3.org/2000/svg" viewBox="0 0 48 48"><path clip-rule="evenodd" d="M6.34 6.34C4 8.69 4 12.46 4 20v8.1c0 7.47 0 11.23 2.34 13.56C8.69 44 12.46 44 20 44h8.1c7.47 0 11.23 0 13.56-2.34C44 39.31 44 35.54 44 28v-8.1c0-7.47 0-11.23-2.34-13.56C39.31 4 35.54 4 28 4h-8.1C12.44 4 8.68 4 6.35 6.34Zm10.16 7.91h15a2.25 2.25 0 0 1 2.25 2.25v2.75h-19.5V16.5a2.25 2.25 0 0 1 2.25-2.25Zm1 3.5h1a.75.75 0 1 0 0-1.5h-1a.75.75 0 1 0 0 1.5Zm3 0h1a.75.75 0 1 0 0-1.5h-1a.75.75 0 1 0 0 1.5Zm-5.6 15.34a2.25 2.25 0 0 1-.65-1.59V20.75h19.5V31.5a2.25 2.25 0 0 1-2.25 2.25h-15a2.25 2.25 0 0 1-1.6-.66Zm9.84-9.15a.77.77 0 0 0 .18.56L27 27l-2.08 2.52a.76.76 0 0 0 .1 1.06.76.76 0 0 0 1.06-.1L28 28.17l1.94 2.31a.76.76 0 0 0 1.06.1.76.76 0 0 0 .1-1.06L29 27l2.08-2.48a.77.77 0 1 0-1.16-1L28 25.83l-1.92-2.33a.77.77 0 0 0-1.34.44Zm-7.77-.47a.75.75 0 0 0-.22.53v3.51a3.25 3.25 0 1 0 6.5 0V24a.75.75 0 1 0-1.5 0v3.51a1.75 1.75 0 0 1-3.5 0V24a.75.75 0 0 0-1.28-.53Z" fill="currentColor" fill-rule="evenodd"/></svg>